<svg width="20" height="19" viewBox="0 0 20 19" fill="none" xmlns="http://www.w3.org/2000/svg">
<path d="M7.74414 18.7295C7.28223 18.7295 6.94922 18.5254 6.62695 18.1064L1.05176 11.0059C0.847656 10.748 0.740234 10.4688 0.740234 10.2217C0.740234 9.63086 1.15918 9.21191 1.77148 9.21191C2.1582 9.21191 2.42676 9.3623 2.69531 9.73828L7.70117 16.291L17.3477 0.918945C17.6055 0.510742 17.8418 0.371094 18.2715 0.371094C18.8623 0.371094 19.249 0.757812 19.249 1.34863C19.249 1.5957 19.1738 1.83203 18.9805 2.14355L8.8291 18.1279C8.57129 18.5254 8.20605 18.7295 7.74414 18.7295Z" fill="white"/>
</svg>
